HIERARCHY
ROOT hip
{
  OFFSET 0 0 0
  CHANNELS 6 Xposition Yposition Zposition Zrotation Yrotation Xrotation
  JOINT abdomen
  {
    OFFSET 0 20.6881 -0.73152
    CHANNELS 3 Zrotation Xrotation Yrotation
    JOINT chest
    {
      OFFSET 0 11.7043 -0.48768
      CHANNELS 3 Zrotation Xrotation Yrotation
      JOINT neck
      {
        OFFSET 0 22.1894 -2.19456
        CHANNELS 3 Zrotation Xrotation Yrotation
        JOINT head
        {
          OFFSET -0.24384 7.07133 1.2192
          CHANNELS 3 Zrotation Xrotation Yrotation
          JOINT leftEye
          {
            OFFSET 4.14528 8.04674 8.04672
            CHANNELS 3 Zrotation Xrotation Yrotation
            End Site
            {
              OFFSET 1 0 0
            }
          }
          JOINT rightEye
          {
            OFFSET -3.6576 8.04674 8.04672
            CHANNELS 3 Zrotation Xrotation Yrotation
            End Site
            {
              OFFSET 1 0 0
            }
          }
        }
      }
      JOINT rCollar
      {
        OFFSET -2.68224 19.2634 -4.8768
        CHANNELS 3 Zrotation Xrotation Yrotation
        JOINT rShldr
        {
          OFFSET -8.77824 -1.95073 1.46304
          CHANNELS 3 Zrotation Xrotation Yrotation
          JOINT rForeArm
          {
            OFFSET -28.1742 -1.7115 0.48768
            CHANNELS 3 Zrotation Xrotation Yrotation
            JOINT rHand
            {
              OFFSET -22.5879 0.773209 7.07136
              CHANNELS 3 Zrotation Xrotation Yrotation
              JOINT rThumb1
              {
                OFFSET -1.2192 -0.487915 3.41376
                CHANNELS 3 Zrotation Xrotation Yrotation
                JOINT rThumb2
                {
                  OFFSET -3.37035 -0.52449 3.41376
                  CHANNELS 3 Zrotation Xrotation Yrotation
                  End Site
                  {
                    OFFSET -1.78271 -1.18214 1.43049
                  }
                }
              }
              JOINT rIndex1
              {
                OFFSET -7.75947 0.938293 5.60832
                CHANNELS 3 Zrotation Xrotation Yrotation
                JOINT rIndex2
                {
                  OFFSET -2.54057 -0.884171 1.56538
                  CHANNELS 3 Zrotation Xrotation Yrotation
                  End Site
                  {
                    OFFSET -1.62519 -0.234802 1.16502
                  }
                }
              }
              JOINT rMid1
              {
                OFFSET -8.24714 1.18213 3.41376
                CHANNELS 3 Zrotation Xrotation Yrotation
                JOINT rMid2
                {
                  OFFSET -3.10165 -0.590103 1.0647
                  CHANNELS 3 Zrotation Xrotation Yrotation
                  End Site
                  {
                    OFFSET -2.48547 -0.328903 0.83742
                  }
                }
              }
              JOINT rRing1
              {
                OFFSET -8.82822 0.546677 1.51678
                CHANNELS 3 Zrotation Xrotation Yrotation
                JOINT rRing2
                {
                  OFFSET -2.60934 -0.819778 -0.0198488
                  CHANNELS 3 Zrotation Xrotation Yrotation
                  End Site
                  {
                    OFFSET -2.33842 -0.294052 0.168128
                  }
                }
              }
              JOINT rPinky1
              {
                OFFSET -8.27202 -0.0477905 -0.4584
                CHANNELS 3 Zrotation Xrotation Yrotation
                JOINT rPinky2
                {
                  OFFSET -1.82734 -0.647385 -0.700984
                  CHANNELS 3 Zrotation Xrotation Yrotation
                  End Site
                  {
                    OFFSET -1.69225 -0.51767 -0.607171
                  }
                }
              }
            }
          }
        }
      }
      JOINT lCollar
      {
        OFFSET 2.68224 19.2634 -4.8768
        CHANNELS 3 Zrotation Xrotation Yrotation
        JOINT lShldr
        {
          OFFSET 8.77824 -1.95073 1.46304
          CHANNELS 3 Zrotation Xrotation Yrotation
          JOINT lForeArm
          {
            OFFSET 28.1742 -1.7115 0.48768
            CHANNELS 3 Zrotation Xrotation Yrotation
            JOINT lHand
            {
              OFFSET 22.5879 0.773209 7.07136
              CHANNELS 3 Zrotation Xrotation Yrotation
              JOINT lThumb1
              {
                OFFSET 1.2192 -0.487915 3.41376
                CHANNELS 3 Zrotation Xrotation Yrotation
                JOINT lThumb2
                {
                  OFFSET 3.37035 -0.52449 3.41376
                  CHANNELS 3 Zrotation Xrotation Yrotation
                  End Site
                  {
                    OFFSET 1.78271 -1.18214 1.43049
                  }
                }
              }
              JOINT lIndex1
              {
                OFFSET 7.75947 0.938293 5.60832
                CHANNELS 3 Zrotation Xrotation Yrotation
                JOINT lIndex2
                {
                  OFFSET 2.54057 -0.884171 1.56538
                  CHANNELS 3 Zrotation Xrotation Yrotation
                  End Site
                  {
                    OFFSET 1.62519 -0.234802 1.16502
                  }
                }
              }
              JOINT lMid1
              {
                OFFSET 8.24714 1.18213 3.41376
                CHANNELS 3 Zrotation Xrotation Yrotation
                JOINT lMid2
                {
                  OFFSET 3.10165 -0.590103 1.0647
                  CHANNELS 3 Zrotation Xrotation Yrotation
                  End Site
                  {
                    OFFSET 2.48547 -0.328903 0.83742
                  }
                }
              }
              JOINT lRing1
              {
                OFFSET 8.82822 0.546677 1.51678
                CHANNELS 3 Zrotation Xrotation Yrotation
                JOINT lRing2
                {
                  OFFSET 2.60934 -0.819778 -0.0198488
                  CHANNELS 3 Zrotation Xrotation Yrotation
                  End Site
                  {
                    OFFSET 2.33842 -0.294052 0.168128
                  }
                }
              }
              JOINT lPinky1
              {
                OFFSET 8.27202 -0.0477905 -0.4584
                CHANNELS 3 Zrotation Xrotation Yrotation
                JOINT lPinky2
                {
                  OFFSET 1.82734 -0.647385 -0.700984
                  CHANNELS 3 Zrotation Xrotation Yrotation
                  End Site
                  {
                    OFFSET 1.69225 -0.51767 -0.607171
                  }
                }
              }
            }
          }
        }
      }
    }
  }
  JOINT rButtock
  {
    OFFSET -8.77824 4.35084 1.2192
    CHANNELS 3 Zrotation Xrotation Yrotation
    JOINT rThigh
    {
      OFFSET 0 -1.70687 -2.19456
      CHANNELS 3 Zrotation Xrotation Yrotation
      JOINT rShin
      {
        OFFSET 0 -36.8199 0.73152
        CHANNELS 3 Zrotation Xrotation Yrotation
        JOINT rFoot
        {
          OFFSET 0.73152 -45.1104 -5.12064
          CHANNELS 3 Zrotation Xrotation Yrotation
          End Site
          {
            OFFSET -1.1221 -3.69964 12.103
          }
        }
      }
    }
  }
  JOINT lButtock
  {
    OFFSET 8.77824 4.35084 1.2192
    CHANNELS 3 Zrotation Xrotation Yrotation
    JOINT lThigh
    {
      OFFSET 0 -1.70687 -2.19456
      CHANNELS 3 Zrotation Xrotation Yrotation
      JOINT lShin
      {
        OFFSET 0 -36.8199 0.73152
        CHANNELS 3 Zrotation Xrotation Yrotation
        JOINT lFoot
        {
          OFFSET -0.73152 -45.1104 -5.12064
          CHANNELS 3 Zrotation Xrotation Yrotation
          End Site
          {
            OFFSET 1.1221 -3.69964 12.103
          }
        }
      }
    }
  }
}
MOTION
Frames:	7
Frame Time:	0.00833333
-23.4184 72.9317 106.343 -0.8004 6.0214 28.2465 2.74115 -36.0921 2.12172 -1.81263 -6.0154 0.315658 -3.80333 0.220408 -3.12451 6.21229 18.1665 -6.11732 -0.0 0.0 0.0 -0.0 0.0 0.0 7.88984e-15 2.86649e-13 1.93815e-13 64.4565 28.0932 12.7534 -25.9951 -46.2816 96.1492 -1.98452 36.6117 5.99371 -8.74101e-10 -8.74615e-11 2.67878e-10 -1.49421e-09 -1.25373e-10 4.86124e-10 -8.74097e-10 -8.74651e-11 2.67875e-10 7.73091 5.47488 0.417314 -8.741e-10 -8.74642e-11 2.67876e-10 2.90554 0.965183 0.102902 -8.74093e-10 -8.74662e-11 2.67877e-10 10.2786 0.731801 0.0259123 -8.74109e-10 -8.74644e-11 2.67886e-10 2.22167 -0.733487 -0.20892 7.84575e-15 2.86645e-13 1.93612e-13 -69.4934 26.125 -7.45955 25.2793 -47.548 -98.9392 1.05852 27.8765 -4.26322 2.07182e-09 2.87559e-09 -1.78292e-09 3.53963e-09 5.04825e-09 -3.12428e-09 2.07182e-09 2.87559e-09 -1.78292e-09 -7.73091 5.47488 -0.417314 2.07183e-09 2.87559e-09 -1.78292e-09 -2.90554 0.965183 -0.102902 2.07182e-09 2.87559e-09 -1.78292e-09 -10.2786 0.731801 -0.0259123 2.07182e-09 2.8756e-09 -1.78294e-09 -2.22167 -0.733487 0.20892 -2.03217e-16 0.0 -3.88251e-19 -7.8501 -63.7127 -9.42594 -1.0842 61.5208 1.89436 -7.49822 -18.6866 -15.189 2.03217e-16 0.0 3.88251e-19 14.2347 -63.4906 15.9911 1.09983 61.0495 -1.69863 3.46703 -19.9108 6.46533
-23.4182 72.9293 106.342 -0.8031 6.0284 28.2517 2.74009 -36.0929 2.12045 -1.81307 -6.01838 0.315743 -3.7893 0.229179 -3.11851 6.18526 18.1796 -6.10577 -0.0 0.0 0.0 -0.0 0.0 0.0 3.42846e-15 2.66571e-13 2.63091e-13 64.4601 28.0886 12.7553 -25.9945 -46.2819 96.1527 -1.9852 36.6169 5.99485 -5.19131e-10 -2.53948e-10 1.52905e-11 -8.88801e-10 -4.30175e-10 3.97835e-11 -5.19128e-10 -2.53947e-10 1.52867e-11 7.73091 5.47488 0.417314 -5.1913e-10 -2.53943e-10 1.52901e-11 2.90554 0.965183 0.102902 -5.19121e-10 -2.53949e-10 1.52891e-11 10.2786 0.731801 0.0259123 -5.19139e-10 -2.53948e-10 1.52971e-11 2.22167 -0.733487 -0.20892 3.42984e-15 2.6657e-13 2.62887e-13 -69.4938 26.1227 -7.46009 25.2793 -47.5481 -98.9391 1.05924 27.8851 -4.26477 2.17348e-09 3.15238e-09 -1.95909e-09 3.71299e-09 5.53228e-09 -3.43109e-09 2.17347e-09 3.15238e-09 -1.95909e-09 -7.73091 5.47488 -0.417314 2.17348e-09 3.15238e-09 -1.95909e-09 -2.90554 0.965183 -0.102902 2.17347e-09 3.15238e-09 -1.95909e-09 -10.2786 0.731801 -0.0259123 2.17347e-09 3.15239e-09 -1.9591e-09 -2.22167 -0.733487 0.20892 -2.03217e-16 0.0 -3.88251e-19 -7.85418 -63.7233 -9.4349 -1.08413 61.5303 1.89439 -7.50084 -18.6867 -15.1941 2.03217e-16 0.0 3.88251e-19 14.2486 -63.5047 16.0005 1.1012 61.0612 -1.69978 3.46307 -19.9132 6.45753
-23.4181 72.9268 106.341 -0.8048 6.0372 28.2552 2.73776 -36.0939 2.11948 -1.8135 -6.02164 0.315862 -3.77418 0.240386 -3.11205 6.15611 18.1916 -6.09331 -0.0 0.0 0.0 -0.0 0.0 0.0 -2.99732e-15 2.21347e-13 3.02053e-13 64.4664 28.0857 12.7544 -25.9941 -46.2817 96.1547 -1.98584 36.6217 5.99592 -2.18677e-10 -4.20635e-10 -2.18864e-10 -3.77548e-10 -7.31959e-10 -3.72966e-10 -2.18677e-10 -4.20631e-10 -2.18869e-10 7.73091 5.47488 0.417314 -2.18676e-10 -4.20624e-10 -2.18862e-10 2.90554 0.965183 0.102902 -2.18666e-10 -4.20633e-10 -2.18866e-10 10.2786 0.731801 0.0259123 -2.18685e-10 -4.20634e-10 -2.18859e-10 2.22167 -0.733487 -0.20892 -2.94778e-15 2.21347e-13 3.0185e-13 -69.4964 26.1221 -7.45716 25.2794 -47.5482 -98.9386 1.06004 27.8945 -4.26647 2.13642e-09 3.20246e-09 -1.99458e-09 3.64964e-09 5.61898e-09 -3.49198e-09 2.13641e-09 3.20246e-09 -1.99457e-09 -7.73091 5.47488 -0.417314 2.13642e-09 3.20246e-09 -1.99457e-09 -2.90554 0.965183 -0.102902 2.13641e-09 3.20246e-09 -1.99457e-09 -10.2786 0.731801 -0.0259123 2.13641e-09 3.20246e-09 -1.99458e-09 -2.22167 -0.733487 0.20892 -2.03217e-16 0.0 -3.88251e-19 -7.8582 -63.7332 -9.44292 -1.08418 61.5401 1.89436 -7.50341 -18.6865 -15.1991 2.03217e-16 0.0 3.88251e-19 14.2609 -63.5174 16.009 1.10263 61.0729 -1.70102 3.45916 -19.9157 6.44979
-23.4179 72.9244 106.34 -0.8046 6.0445 28.2578 2.73319 -36.0951 2.11872 -1.81384 -6.02438 0.316031 -3.75737 0.253128 -3.10393 6.12444 18.2027 -6.07756 -0.0 0.0 0.0 -0.0 0.0 0.0 -1.53477e-14 1.92423e-13 2.8953e-13 64.474 28.0853 12.7514 -25.9943 -46.281 96.1543 -1.98653 36.6271 5.99708 -2.57262e-10 -5.89761e-10 -3.32858e-10 -4.48063e-10 -1.02264e-09 -5.68381e-10 -2.57264e-10 -5.89754e-10 -3.32864e-10 7.73091 5.47488 0.417314 -2.57262e-10 -5.89748e-10 -3.32855e-10 2.90554 0.965183 0.102902 -2.57251e-10 -5.89757e-10 -3.32861e-10 10.2786 0.731801 0.0259123 -2.5727e-10 -5.89758e-10 -3.32855e-10 2.22167 -0.733487 -0.20892 -1.52662e-14 1.92425e-13 2.89331e-13 -69.5022 26.1223 -7.45056 25.2793 -47.5485 -98.9386 1.06071 27.9024 -4.26791 2.05348e-09 3.1431e-09 -1.95563e-09 3.50766e-09 5.51318e-09 -3.4231e-09 2.05347e-09 3.1431e-09 -1.95562e-09 -7.73091 5.47488 -0.417314 2.05348e-09 3.14309e-09 -1.95562e-09 -2.90554 0.965183 -0.102902 2.05347e-09 3.1431e-09 -1.95562e-09 -10.2786 0.731801 -0.0259123 2.05347e-09 3.1431e-09 -1.95563e-09 -2.22167 -0.733487 0.20892 -2.03217e-16 0.0 -3.88251e-19 -7.86173 -63.7421 -9.44992 -1.08487 61.5505 1.89508 -7.50558 -18.6865 -15.2032 2.03217e-16 0.0 3.88251e-19 14.2708 -63.5284 16.0163 1.1042 61.0842 -1.70272 3.45599 -19.9177 6.44369
-23.4176 72.9221 106.34 -0.8041 6.0517 28.2592 2.72592 -36.0963 2.11825 -1.81413 -6.02648 0.316248 -3.73928 0.267855 -3.09414 6.09014 18.2134 -6.05839 -0.0 0.0 0.0 -0.0 0.0 0.0 -3.71992e-14 1.84509e-13 1.83679e-13 64.483 28.0877 12.7466 -25.9951 -46.2798 96.1507 -1.98733 36.6332 5.99842 -8.6786e-10 -7.60926e-10 -2.42878e-10 -1.50029e-09 -1.2908e-09 -3.94926e-10 -8.6786e-10 -7.6092e-10 -2.42887e-10 7.73091 5.47488 0.417314 -8.6786e-10 -7.60921e-10 -2.42875e-10 2.90554 0.965183 0.102902 -8.6785e-10 -7.60922e-10 -2.42883e-10 10.2786 0.731801 0.0259123 -8.67867e-10 -7.60924e-10 -2.42877e-10 2.22167 -0.733487 -0.20892 -3.71053e-14 1.84511e-13 1.83488e-13 -69.5116 26.123 -7.44026 25.2792 -47.5491 -98.9388 1.06123 27.9086 -4.26902 1.85649e-09 2.81453e-09 -1.74106e-09 3.17083e-09 4.93501e-09 -3.04809e-09 1.85649e-09 2.81453e-09 -1.74104e-09 -7.73091 5.47488 -0.417314 1.85649e-09 2.81453e-09 -1.74105e-09 -2.90554 0.965183 -0.102902 1.85648e-09 2.81453e-09 -1.74105e-09 -10.2786 0.731801 -0.0259123 1.85648e-09 2.81453e-09 -1.74106e-09 -2.22167 -0.733487 0.20892 -2.03217e-16 0.0 -3.88251e-19 -7.86458 -63.7501 -9.45578 -1.08657 61.5619 1.89696 -7.50724 -18.6863 -15.2064 2.03217e-16 0.0 3.88251e-19 14.278 -63.5375 16.0221 1.10614 61.0957 -1.70532 3.45387 -19.919 6.43985
-23.4173 72.9199 106.34 -0.803 6.0578 28.2589 2.71653 -36.0976 2.1181 -1.81438 -6.02833 0.316506 -3.72003 0.284819 -3.0832 6.05342 18.2235 -6.0369 -0.0 0.0 0.0 -0.0 0.0 0.0 -6.55995e-14 1.77614e-13 7.85822e-15 64.4938 28.0924 12.7395 -25.9964 -46.2782 96.1445 -1.98817 36.6396 5.99983 -1.84636e-09 -9.33269e-10 -2.20746e-11 -3.18421e-09 -1.54382e-09 1.5225e-11 -1.84636e-09 -9.33265e-10 -2.20862e-11 7.73091 5.47488 0.417314 -1.84636e-09 -9.33278e-10 -2.20725e-11 2.90554 0.965183 0.102902 -1.84635e-09 -9.33268e-10 -2.20816e-11 10.2786 0.731801 0.0259123 -1.84637e-09 -9.33269e-10 -2.20758e-11 2.22167 -0.733487 -0.20892 -6.55033e-14 1.77615e-13 7.67806e-15 -69.5241 26.1245 -7.42636 25.279 -47.5497 -98.939 1.0617 27.9141 -4.27001 1.52692e-09 2.2179e-09 -1.35514e-09 2.60762e-09 3.88673e-09 -2.3741e-09 1.52692e-09 2.21791e-09 -1.35513e-09 -7.73091 5.47488 -0.417314 1.52692e-09 2.21791e-09 -1.35514e-09 -2.90554 0.965183 -0.102902 1.52691e-09 2.2179e-09 -1.35514e-09 -10.2786 0.731801 -0.0259123 1.52691e-09 2.2179e-09 -1.35514e-09 -2.22167 -0.733487 0.20892 -2.03217e-16 0.0 -3.88251e-19 -7.86701 -63.7573 -9.4606 -1.08892 61.5741 1.89949 -7.50859 -18.686 -15.2089 2.03217e-16 0.0 3.88251e-19 14.283 -63.5448 16.0268 1.10833 61.1073 -1.70849 3.45236 -19.9199 6.43736
-23.417 72.9178 106.34 -0.8009 6.0624 28.2572 2.70562 -36.0992 2.11802 -1.8145 -6.02991 0.316817 -3.69866 0.302816 -3.07078 6.01438 18.2318 -6.01256 -0.0 0.0 0.0 -0.0 0.0 0.0 -9.47157e-14 1.76136e-13 -1.61307e-13 64.5062 28.0992 12.7299 -25.9979 -46.2761 96.1373 -1.989 36.6459 6.00123 -2.82165e-09 -1.10833e-09 1.95837e-10 -4.86245e-09 -1.80188e-09 4.20244e-10 -2.82165e-09 -1.10833e-09 1.95822e-10 7.73091 5.47488 0.417314 -2.82165e-09 -1.10836e-09 1.95838e-10 2.90554 0.965183 0.102902 -2.82165e-09 -1.10833e-09 1.95828e-10 10.2786 0.731801 0.0259123 -2.82166e-09 -1.10833e-09 1.95834e-10 2.22167 -0.733487 -0.20892 -9.46267e-14 1.76136e-13 -1.61473e-13 -69.539 26.1277 -7.40883 25.2786 -47.5506 -98.9399 1.0621 27.9189 -4.27088 1.23205e-09 1.7118e-09 -1.02236e-09 2.10319e-09 2.99636e-09 -1.79262e-09 1.23205e-09 1.71181e-09 -1.02235e-09 -7.73091 5.47488 -0.417314 1.23205e-09 1.71182e-09 -1.02237e-09 -2.90554 0.965183 -0.102902 1.23204e-09 1.71181e-09 -1.02236e-09 -10.2786 0.731801 -0.0259123 1.23205e-09 1.7118e-09 -1.02236e-09 -2.22167 -0.733487 0.20892 -2.03217e-16 0.0 -3.88251e-19 -7.86922 -63.7636 -9.46451 -1.09136 61.586 1.90218 -7.50974 -18.6859 -15.211 2.03217e-16 0.0 3.88251e-19 14.2862 -63.5507 16.0304 1.11037 61.1178 -1.71152 3.45117 -19.9208 6.4355
